
        <svg xmlns="http://www.w3.org/2000/svg" xmlns:xlink="http://www.w3.org/1999/xlink" version="1.1" width="3162.110594281606" 
        height="910.9318594752277" viewBox="0 0 3162.110594281606 910.9318594752277">
			
			<g transform="scale(8.10552971408029) translate(10, 10)">
				<defs id="SvgjsDefs7143"></defs><g id="SvgjsG7144" featureKey="symbolFeature-0" transform="matrix(1.143131648274505,0,0,1.143131648274505,-5.71543366526212,-10.967965818915035)" fill="#222831"><g xmlns="http://www.w3.org/2000/svg" transform="translate(0,-952.36218)"><path style="text-indent:0;text-transform:none;direction:ltr;block-progression:tb;baseline-shift:baseline;color:;enable-background:accumulate;" d="m 29.086397,961.95687 c -0.006,10e-4 -0.0125,0.003 -0.0186,0.005 -0.0403,0.007 -0.0783,0.027 -0.10722,0.056 l -1.41259,1.31468 -1.41259,1.31469 -1.41258,1.31468 c -0.023,0.0219 -0.0408,0.0493 -0.0513,0.0793 l -1.18881,3.23077 c -0.0104,0.0298 -0.0136,0.062 -0.009,0.0932 l 0.22378,1.91608 0.22377,1.91609 0.11655,0.97902 -2.77389,7.55244 c -2.84875,4.09108 -4.80595,8.71753 -5.75757,13.58042 l -0.73194,-4.23776 0.30303,-0.98368 0.56877,-1.84615 0.55944,-1.85082 c 0.009,-0.029 0.0138,-0.0585 0.009,-0.0886 l -0.59207,-3.39394 c -0.004,-0.0314 -0.0144,-0.0626 -0.0326,-0.0886 l -1.15617,-1.54313 -1.15152,-1.54778 -1.15617,-1.54779 c -0.0445,-0.0623 -0.12562,-0.0917 -0.20047,-0.0793 -0.0249,0.004 -0.0484,0.01 -0.0699,0.0233 -0.005,0.004 -0.01,0.009 -0.014,0.014 -0.0313,0.0264 -0.0547,0.063 -0.0653,0.10256 l -0.5641,1.84616 -0.56876,1.84615 -0.56411,1.8415 c -0.009,0.0305 -0.0105,0.0667 -0.005,0.0979 l 0.58742,3.38927 c 0.006,0.031 0.018,0.0637 0.0373,0.0886 l 1.15152,1.54313 1.15151,1.54778 0.59207,0.79254 1.3753,7.94405 c -0.0841,0.99797 -0.13054,2.00377 -0.13054,3.01167 0,4.0613 0.68197,7.9637 1.93007,11.6037 l -2.75058,-3.296 -0.2331,-1.007 -0.42891,-1.8788 -0.43823,-1.8834 c -0.007,-0.03 -0.0184,-0.06 -0.0373,-0.084 l -2.2098,-2.6434 c -0.0195,-0.025 -0.0458,-0.043 -0.0746,-0.056 l -1.7762201,-0.7646 -1.771564,-0.7599 -1.766899,-0.7645 c -0.09292,-0.042 -0.218826,-0 -0.265734,0.089 -0.0021,0.01 -0.0032,0.012 -0.0047,0.019 -0.01395,0.038 -0.01528,0.082 -0.0047,0.1212 l 0.433566,1.8788 0.428905,1.8834 0.433566,1.8788 c 0.0074,0.031 0.02127,0.06 0.04196,0.084 l 2.20513,2.648 c 0.0206,0.024 0.0454,0.039 0.0746,0.051 l 1.7715601,0.7646 1.77156,0.7646 0.90909,0.3869 5.16084,6.1911 c 2.12957,4.5201 5.17501,8.5256 8.89976,11.7716 l -4.0606,-1.4918 -0.70396,-0.7553 -1.31469,-1.4126 -1.31934,-1.4126 c -0.0206,-0.022 -0.0463,-0.04 -0.0746,-0.051 l -3.23543,-1.1841 c -0.0294,-0.012 -0.0616,-0.017 -0.0932,-0.014 l -1.91608,0.2284 -1.91608,0.2238 -1.91608,0.2238 c -0.10162,0.01 -0.18654,0.1078 -0.18182,0.2098 10e-4,0.01 0.003,0.012 0.005,0.019 0.007,0.04 0.027,0.078 0.0559,0.1072 l 1.31468,1.4126 1.31469,1.4126 1.31468,1.4126 c 0.0219,0.023 0.0493,0.041 0.0793,0.051 l 3.23077,1.1888 c 0.0298,0.01 0.062,0.014 0.0932,0.01 l 1.91608,-0.2238 1.91609,-0.2238 0.97902,-0.1165 7.59906,2.7925 c 3.99841,2.7828 8.59171,4.7693 13.54778,5.7343 l -4.25175,0.7366 -0.98834,-0.3031 -1.84615,-0.5641 -1.84616,-0.5641 c -0.029,-0.01 -0.0585,-0.014 -0.0886,-0.01 l -3.39393,0.5921 c -0.0314,0 -0.0626,0.019 -0.0886,0.037 l -1.54779,1.1562 -1.54778,1.1515 -1.54779,1.1515 c -0.0831,0.059 -0.10636,0.1844 -0.0513,0.2704 0.004,0.01 0.009,0.01 0.014,0.014 0.0264,0.031 0.063,0.055 0.10256,0.065 l 1.84616,0.5641 1.84149,0.5688 1.84615,0.5641 c 0.0305,0.01 0.062,0.011 0.0932,0.01 l 3.39394,-0.5828 c 0.031,-0.01 0.059,-0.023 0.0839,-0.042 l 1.5478,-1.1515 1.54778,-1.1515 0.78788,-0.5874 7.97202,-1.38 c 0.5652,0.047 1.13358,0.078 1.7063,0.098 l 0,0.023 c 0.21454,0 0.4296,-0.01 0.64335,-0.01 0.21376,0 0.42881,0.01 0.64336,0.01 l 0,-0.023 c 0.57272,-0.02 1.14109,-0.051 1.70629,-0.098 l 7.97202,1.38 0.78788,0.5874 1.54779,1.1515 1.54778,1.1515 c 0.0249,0.019 0.0529,0.036 0.0839,0.042 l 3.39394,0.5828 c 0.0312,0.01 0.0628,0 0.0932,-0.01 l 1.84615,-0.5641 1.84149,-0.5688 1.84615,-0.5641 c 0.0396,-0.011 0.0762,-0.034 0.10257,-0.065 0.005,-0 0.01,-0.01 0.014,-0.014 0.0551,-0.086 0.0318,-0.2111 -0.0513,-0.2704 l -1.54778,-1.1515 -1.54779,-1.1515 -1.54778,-1.1562 c -0.026,-0.018 -0.0572,-0.033 -0.0886,-0.037 l -3.39393,-0.5921 c -0.0301,-0 -0.0596,2e-4 -0.0886,0.01 l -1.84615,0.5641 -1.84615,0.5641 -0.98835,0.303 -4.25174,-0.7365 c 4.95607,-0.965 9.54936,-2.9515 13.54777,-5.7343 l 7.59907,-2.7926 0.97902,0.1166 1.91608,0.2238 1.91608,0.2238 c 0.0312,0 0.0635,10e-4 0.0932,-0.01 l 3.23077,-1.1889 c 0.03,-0.01 0.0574,-0.028 0.0793,-0.051 l 1.31468,-1.4125 1.31468,-1.4126 1.31469,-1.4126 c 0.029,-0.029 0.0488,-0.067 0.0559,-0.1072 0.002,-0.01 0.003,-0.012 0.005,-0.019 0.005,-0.102 -0.0802,-0.2 -0.18182,-0.2098 l -1.91608,-0.2238 -1.91609,-0.2238 -1.91607,-0.2284 c -0.0316,-0 -0.0638,0 -0.0932,0.014 l -3.23543,1.1841 c -0.0283,0.011 -0.054,0.029 -0.0746,0.051 l -1.31935,1.4126 -1.31468,1.4126 -0.70397,0.7552 -4.0606,1.4919 c 3.72476,-3.246 6.77019,-7.2515 8.89976,-11.7716 l 5.16084,-6.1911 0.90909,-0.387 1.77156,-0.7645 1.77156,-0.7646 c 0.0292,-0.012 0.054,-0.027 0.0746,-0.051 l 2.20513,-2.648 c 0.0207,-0.024 0.0345,-0.053 0.042,-0.084 l 0.43356,-1.8788 0.42891,-1.8835 0.43356,-1.8787 c 0.0106,-0.039 0.009,-0.083 -0.005,-0.1213 -0.001,-0.01 -0.003,-0.013 -0.005,-0.019 -0.0469,-0.091 -0.17281,-0.1308 -0.26573,-0.089 l -1.7669,0.7646 -1.77156,0.7599 -1.77622,0.7646 c -0.0288,0.013 -0.0551,0.031 -0.0746,0.056 l -2.20979,2.6433 c -0.0189,0.024 -0.0307,0.054 -0.0373,0.084 l -0.43823,1.8835 -0.4289,1.8788 -0.2331,1.007 -2.75058,3.296 c 1.24809,-3.64 1.93007,-7.5425 1.93007,-11.6037 0,-1.0079 -0.0464,-2.0137 -0.13054,-3.01168 l 1.37529,-7.94405 0.59207,-0.79254 1.15152,-1.54778 1.15151,-1.54313 c 0.0193,-0.0249 0.0314,-0.0576 0.0373,-0.0886 l 0.58741,-3.38927 c 0.006,-0.0312 0.004,-0.0674 -0.005,-0.0979 l -0.5641,-1.84149 -0.56877,-1.84616 -0.5641,-1.84615 c -0.0106,-0.0395 -0.0339,-0.0762 -0.0653,-0.10256 -0.004,-0.005 -0.009,-0.01 -0.014,-0.014 -0.0215,-0.0138 -0.045,-0.0192 -0.0699,-0.0233 -0.0748,-0.0124 -0.15597,0.0169 -0.20046,0.0793 l -1.15618,1.54779 -1.15154,1.54777 -1.15618,1.54313 c -0.0182,0.026 -0.0283,0.0572 -0.0326,0.0886 l -0.59207,3.39394 c -0.004,0.0301 1.5e-4,0.0596 0.009,0.0886 l 0.55944,1.85082 0.56877,1.84615 0.30303,0.98368 -0.73194,4.23776 c -0.95162,-4.86289 -2.90881,-9.48934 -5.75757,-13.58041 l -2.77389,-7.55244 0.11655,-0.97903 0.22378,-1.91608 0.22377,-1.91608 c 0.004,-0.0312 0.001,-0.0635 -0.009,-0.0932 l -1.18881,-3.23077 c -0.0105,-0.03 -0.0283,-0.0574 -0.0513,-0.0793 l -1.41259,-1.31469 -1.41259,-1.31468 -1.41258,-1.31469 c -0.0289,-0.029 -0.0669,-0.0488 -0.10723,-0.0559 -0.006,-0.002 -0.0124,-0.003 -0.0186,-0.005 -0.10198,-0.005 -0.19996,0.0802 -0.20979,0.18181 l -0.22377,1.91609 -0.22378,1.91608 -0.22844,1.91608 c -0.003,0.0316 0.002,0.0638 0.014,0.0932 l 1.18415,3.23543 c 0.0112,0.0283 0.0289,0.054 0.0513,0.0746 l 1.41259,1.31935 1.41258,1.31468 0.75525,0.70397 1.93007,5.25874 -0.28905,0.23776 -9.63169,-8.03263 -0.13986,-0.32634 -0.76457,-1.77156 -0.76457,-1.77156 -2.64335,-2.20514 -1.87878,-0.43356 -1.88345,-0.43357 -0.34033,-0.0793 -0.0513,-0.042 -0.0233,0.028 -1.46387,-0.34033 0.59207,1.38462 -0.0606,0.0746 0.14918,0.12121 0.0793,0.19114 0.76457,1.77623 0.76456,1.77156 2.64336,2.20512 1.88345,0.43357 1.87878,0.43357 0.20513,0.0466 9.74825,8.13053 c 1.15133,1.44327 2.17723,2.96843 3.0676,4.5641 l -7.72028,-3.5711 -0.10256,-0.13053 -1.19348,-1.51515 -1.1655,-1.47786 -3.03496,-1.40792 -1.88345,0.0699 -1.93007,0.0653 -1.5338,0.0559 0.95105,1.2028 1.19814,1.51515 1.16084,1.47785 3.03962,1.40793 1.88345,-0.0699 1.92541,-0.0653 0.27039,-0.009 9.03496,4.18181 c 2.19004,4.525 3.34732,9.5174 3.34732,14.61071 0,0.1572 -0.003,0.3142 -0.005,0.4709 l -4.89044,-6.93709 -0.0233,-0.16317 -0.27972,-1.91142 -0.2704,-1.86014 -1.92074,-2.7366 -1.669,-0.88111 -1.70163,-0.9091 -1.35664,-0.71794 0.21911,1.51515 0.28438,1.91142 0.26574,1.86014 1.9254,2.74125 1.669,0.88112 1.69697,0.90443 0.24242,0.12588 5.72494,8.13058 c -0.38331,5.3689 -2.02645,10.3888 -4.63869,14.7599 l -0.76923,-8.4709 0.0606,-0.1539 0.71794,-1.7948 0.69464,-1.7483 -0.2937,-3.3286 -1.00233,-1.5991 -1.02564,-1.6364 -0.81119,-1.30068 -0.56877,1.42188 -0.71328,1.7996 -0.6993,1.7436 0.30303,3.3333 1.00233,1.5991 1.01631,1.6317 0.14452,0.2331 0.89511,9.9114 c -2.92747,4.308 -6.83362,7.8954 -11.3986,10.4475 l 3.5711,-7.7156 0.13053,-0.1026 1.51515,-1.1934 1.47786,-1.1655 1.40792,-3.035 -0.0699,-1.8834 -0.0653,-1.9301 -0.0559,-1.5338 -1.20279,0.951 -1.51516,1.1982 -1.47785,1.1608 -1.40792,3.0396 0.0699,1.8835 0.0653,1.9254 0.009,0.2704 -4.18182,9.035 c -3.40472,1.6499 -7.13219,2.7422 -11.06293,3.1561 l -1.87879,-1.324 4.7972,-3.3799 0.16784,-0.023 1.90675,-0.2751 1.86481,-0.2704 2.73659,-1.9254 0.88112,-1.669 0.90909,-1.7016 0.71795,-1.3567 -1.51981,0.2238 -1.91143,0.2797 -1.86013,0.2658 -2.7366,1.9254 -0.88112,1.669 -0.90909,1.6969 -0.12587,0.2425 -5.0676,3.5711 -5.06759,-3.5711 -0.12588,-0.2425 -0.90909,-1.6969 -0.88112,-1.669 -2.73659,-1.9254 -1.86014,-0.2658 -1.91142,-0.2797 -1.51982,-0.2238 0.71795,1.3567 0.90909,1.7016 0.88112,1.669 2.7366,1.9254 1.8648,0.2704 1.90676,0.2751 0.16783,0.023 4.7972,3.3799 -1.87879,1.324 c -3.93073,-0.4139 -7.65821,-1.5062 -11.06293,-3.1561 l -4.18181,-9.035 0.009,-0.2704 0.0653,-1.9254 0.0699,-1.8835 -1.40793,-3.0396 -1.47785,-1.1608 -1.51515,-1.1982 -1.2028,-0.951 -0.0559,1.5338 -0.0653,1.9301 -0.0699,1.8834 1.40792,3.035 1.47786,1.1655 1.51515,1.1934 0.13053,0.1026 3.5711,7.7156 c -4.56498,-2.5521 -8.47113,-6.1395 -11.3986,-10.4475 l 0.89511,-9.9114 0.14452,-0.2331 1.01632,-1.6317 1.00233,-1.5991 0.30303,-3.3333 -0.6993,-1.7436 -0.71329,-1.7996 -0.56876,-1.42188 -0.81119,1.30068 -1.02564,1.6364 -1.00233,1.5991 -0.29371,3.3286 0.69464,1.7483 0.71795,1.7948 0.0606,0.1539 -0.76923,8.4709 c -2.61224,-4.3711 -4.25538,-9.391 -4.63869,-14.7599 l 5.72494,-8.13058 0.24242,-0.12588 1.69697,-0.90443 1.669,-0.88112 1.92541,-2.74125 0.26573,-1.86014 0.28438,-1.91142 0.21912,-1.51515 -1.35665,0.71794 -1.70163,0.9091 -1.66899,0.88111 -1.92075,2.7366 -0.2704,1.86014 -0.27972,1.91142 -0.0233,0.16317 -4.89044,6.93709 c -0.002,-0.1567 -0.005,-0.3137 -0.005,-0.4709 0,-5.09331 1.15728,-10.08571 3.34732,-14.61071 l 9.03496,-4.18181 0.27039,0.009 1.92541,0.0653 1.88345,0.0699 3.03962,-1.40793 1.16084,-1.47785 1.19814,-1.51515 0.95105,-1.2028 -1.5338,-0.0559 -1.93007,-0.0653 -1.88345,-0.0699 -3.03496,1.40792 -1.1655,1.47786 -1.19348,1.51515 -0.10256,0.13053 -7.72028,3.5711 c 0.89036,-1.59567 1.91627,-3.12083 3.06759,-4.5641 l 9.74825,-8.13053 0.20513,-0.0466 1.87879,-0.43357 1.88344,-0.43357 2.64336,-2.20512 0.76457,-1.77156 0.76457,-1.77623 0.0793,-0.19114 0.14918,-0.12121 -0.0606,-0.0746 0.59207,-1.38462 -1.46387,0.34033 -0.0233,-0.028 -0.0513,0.042 -0.34032,0.0793 -1.88345,0.43357 -1.87879,0.43356 -2.64336,2.20513 -0.76456,1.77156 -0.76457,1.77156 -0.13986,0.32634 -9.6317,8.03263 -0.28904,-0.23776 1.93007,-5.25874 0.75524,-0.70396 1.41259,-1.31469 1.41258,-1.31934 c 0.0224,-0.0206 0.0401,-0.0463 0.0513,-0.0746 l 1.18414,-3.23543 c 0.0119,-0.0294 0.0168,-0.0616 0.014,-0.0932 l -0.22844,-1.91608 -0.22377,-1.91608 -0.22378,-1.91608 c -0.01,-0.10162 -0.1078,-0.18654 -0.20979,-0.18182 z m 20.91374,72.96963 1.04429,0.7366 c -0.34685,0.017 -0.69474,0.031 -1.04429,0.037 -0.34896,-0.01 -0.69802,-0.02 -1.04429,-0.037 l 1.04429,-0.7366 z" fill="#222831" fill-opacity="1" fill-rule="nonzero" stroke="none" marker="none" visibility="visible" display="inline" overflow="visible"></path></g></g><g id="SvgjsG7145" featureKey="nameFeature-0" transform="matrix(0.504320953477669,0,0,0.504320953477669,122.13357639415153,24.2574848340223)" fill="#222831"><path d="M16.152 40.39063 c-8.3008 0 -14.434 -5.6641 -14.434 -14.512 c0 -8.8672 6.1328 -14.492 14.434 -14.492 c8.2813 0 14.414 5.625 14.414 14.492 c0 8.8477 -6.1328 14.512 -14.414 14.512 z M16.152 35.0195 c4.8633 0 8.5938 -3.418 8.5938 -9.1406 c0 -5.7031 -3.7305 -9.1016 -8.5938 -9.1016 s-8.5938 3.3984 -8.5938 9.1016 c0 5.7227 3.7305 9.1406 8.5938 9.1406 z M54.8436875 40 l-2.0508 -5.8203 l-11.855 0 l-2.0508 5.8203 l-5.9961 0 l10.391 -28.223 l7.168 0 l10.391 28.223 l-5.9961 0 z M42.656687500000004 29.277 l8.418 0 l-4.1992 -11.973 z M81.77778125 40 l-8.7695 -11.992 l-2.0703 0 l0 11.992 l-5.8594 0 l0 -28.223 l5.8594 0 l0 11.094 l1.9922 0 l8.8477 -11.094 l7.1484 0 l-10.938 13.496 l11.27 14.727 l-7.4805 0 z M98.0468875 40 l-7.3828 -28.223 l6.0938 0 l5.5078 21.367 l6.3086 -21.367 l4.9414 0 l6.2695 21.367 l5.5664 -21.367 l6.0742 0 l-7.3828 28.223 l-7.5391 0 l-5.4688 -17.441 l-5.4492 17.441 l-7.5391 0 z M148.43715625 40.39063 c-8.3008 0 -14.434 -5.6641 -14.434 -14.512 c0 -8.8672 6.1328 -14.492 14.434 -14.492 c8.2813 0 14.414 5.625 14.414 14.492 c0 8.8477 -6.1328 14.512 -14.414 14.512 z M148.43715625 35.0195 c4.8633 0 8.5938 -3.418 8.5938 -9.1406 c0 -5.7031 -3.7305 -9.1016 -8.5938 -9.1016 s-8.5938 3.3984 -8.5938 9.1016 c0 5.7227 3.7305 9.1406 8.5938 9.1406 z M180.74184375 40.39063 c-8.3008 0 -14.434 -5.6641 -14.434 -14.512 c0 -8.8672 6.1328 -14.492 14.434 -14.492 c8.2813 0 14.414 5.625 14.414 14.492 c0 8.8477 -6.1328 14.512 -14.414 14.512 z M180.74184375 35.0195 c4.8633 0 8.5938 -3.418 8.5938 -9.1406 c0 -5.7031 -3.7305 -9.1016 -8.5938 -9.1016 s-8.5938 3.3984 -8.5938 9.1016 c0 5.7227 3.7305 9.1406 8.5938 9.1406 z M200.54683125 40 l0 -28.223 l10.215 0 c9.0039 0 13.457 5.6641 13.457 14.102 c0 8.457 -4.4531 14.121 -13.457 14.121 l-10.215 0 z M206.40623125 34.8242 l4.0625 0 c5.1953 0 7.5781 -3.2422 7.5781 -8.9453 s-2.3828 -8.9453 -7.5781 -8.9453 l-4.0625 0 l0 17.891 z M245.9570125 34.8242 l8.8477 0 l0 5.1758 l-14.707 0 l0 -28.223 l5.8594 0 l0 23.047 z M275.645 16.934 l-10.469 0 l0 6.4063 l9.2773 0 l0 5.0977 l-9.2773 0 l0 6.3867 l10.469 0 l0 5.1758 l-16.367 0 l0 -28.223 l16.367 0 l0 5.1563 z M300.56634375 40 l-2.0508 -5.8203 l-11.855 0 l-2.0508 5.8203 l-5.9961 0 l10.391 -28.223 l7.168 0 l10.391 28.223 l-5.9961 0 z M288.37934375 29.277 l8.418 0 l-4.1992 -11.973 z M327.4414375 16.934 l-10.742 0 l0 6.4063 l9.2773 0 l0 5.0977 l-9.2773 0 l0 11.563 l-5.8984 0 l0 -28.223 l16.641 0 l0 5.1563 z M354.5706875 11.777000000000001 c5.5273 0 8.9648 4.1016 8.9648 9.1211 c0 5.1367 -3.4375 8.9844 -8.9648 8.9844 l-5.8789 0 l0 10.117 l-5.8594 0 l0 -28.223 l11.738 0 z M353.5936875 24.98 c2.9297 0 4.2969 -1.6211 4.2969 -4.1602 c0 -2.4414 -1.3672 -4.1406 -4.2969 -4.1406 l-4.9023 0 l0 8.3008 l4.9023 0 z M386.4066875 11.777000000000001 l6.2305 0 l-10.43 28.223 l-6.4453 0 l-10.371 -28.223 l6.2109 0 l7.4023 21.387 z M413.24265625 11.777000000000001 l0 5.1563 l-6.6992 0 l0 23.066 l-5.8008 0 l0 -23.066 l-6.7383 0 l0 -5.1563 l19.238 0 z M433.9257625 34.8242 l8.8477 0 l0 5.1758 l-14.707 0 l0 -28.223 l5.8594 0 l0 23.047 z M463.61375 11.777000000000001 l0 5.1563 l-6.6992 0 l0 23.066 l-5.8008 0 l0 -23.066 l-6.7383 0 l0 -5.1563 l19.238 0 z M468.04683125 40 l0 -28.223 l10.215 0 c9.0039 0 13.457 5.6641 13.457 14.102 c0 8.457 -4.4531 14.121 -13.457 14.121 l-10.215 0 z M473.90623125 34.8242 l4.0625 0 c5.1953 0 7.5781 -3.2422 7.5781 -8.9453 s-2.3828 -8.9453 -7.5781 -8.9453 l-4.0625 0 l0 17.891 z"></path></g><g id="SvgjsG7146" featureKey="sloganFeature-0" transform="matrix(0.5622246866264793,0,0,0.5622246866264793,122.78022629407472,54.7991142020621)" fill="#222831"><path d="M10.01 5.888999999999999 l0 2.5781 l-3.3496 0 l0 11.533 l-2.9004 0 l0 -11.533 l-3.3691 0 l0 -2.5781 l9.6191 0 z M21.494096875 20 l-3.6719 -6.2109 l-0.84961 0 l0 6.2109 l-2.9297 0 l0 -14.111 l5.1172 0 c3.1934 0 4.541 1.8848 4.541 4.2188 c0 1.8945 -1.0742 3.125 -2.9883 3.5352 l4.248 6.3574 l-3.4668 0 z M16.972696875 8.32 l0 3.3691 l1.7285 0 c1.5625 0 2.1973 -0.66406 2.1973 -1.6797 c0 -1.0059 -0.63477 -1.6895 -2.1973 -1.6895 l-1.7285 0 z M38.369609374999996 20 l-1.0254 -2.9102 l-5.9277 0 l-1.0254 2.9102 l-2.998 0 l5.1953 -14.111 l3.584 0 l5.1953 14.111 l-2.998 0 z M32.275409375 14.6387 l4.209 0 l-2.0996 -5.9863 z M54.9415625 5.888999999999999 l2.9199 0 l0 14.111 l-3.3887 0 l-6.25 -10.088 l0 10.088 l-2.9199 0 l0 -14.111 l3.3496 0 l6.2891 10.029 l0 -10.029 z M68.01760625 20.19531 c-3.0273 0 -5.3906 -1.4551 -5.8203 -4.1016 l3.0273 -0.69336 c0.19531 1.582 1.3574 2.4023 2.9102 2.4023 c1.1914 0 2.1387 -0.52734 2.1289 -1.7188 c-0.0097656 -1.3281 -1.5723 -1.748 -3.291 -2.2754 c-2.0703 -0.64453 -4.2871 -1.4063 -4.2871 -4.0039 c0 -2.627 2.1484 -4.1113 4.9805 -4.1113 c2.4805 0 4.9805 1.0059 5.5469 3.7109 l-2.832 0.70313 c-0.26367 -1.4063 -1.2109 -2.0215 -2.5391 -2.0215 c-1.1816 0 -2.1875 0.48828 -2.1875 1.6504 c0 1.084 1.3867 1.4453 2.9883 1.9238 c2.1289 0.64453 4.6484 1.4648 4.6484 4.2773 c0 2.998 -2.5098 4.2578 -5.2734 4.2578 z M86.132328125 8.467 l-5.3711 0 l0 3.2031 l4.6387 0 l0 2.5488 l-4.6387 0 l0 5.7813 l-2.9492 0 l0 -14.111 l8.3203 0 l0 2.5781 z M96.699246875 20.19531 c-4.1504 0 -7.2168 -2.832 -7.2168 -7.2559 c0 -4.4336 3.0664 -7.2461 7.2168 -7.2461 c4.1406 0 7.207 2.8125 7.207 7.2461 c0 4.4238 -3.0664 7.2559 -7.207 7.2559 z M96.699246875 17.5098 c2.4316 0 4.2969 -1.709 4.2969 -4.5703 c0 -2.8516 -1.8652 -4.5508 -4.2969 -4.5508 s-4.2969 1.6992 -4.2969 4.5508 c0 2.8613 1.8652 4.5703 4.2969 4.5703 z M115.869096875 20 l-3.6719 -6.2109 l-0.84961 0 l0 6.2109 l-2.9297 0 l0 -14.111 l5.1172 0 c3.1934 0 4.541 1.8848 4.541 4.2188 c0 1.8945 -1.0742 3.125 -2.9883 3.5352 l4.248 6.3574 l-3.4668 0 z M111.347696875 8.32 l0 3.3691 l1.7285 0 c1.5625 0 2.1973 -0.66406 2.1973 -1.6797 c0 -1.0059 -0.63477 -1.6895 -2.1973 -1.6895 l-1.7285 0 z M139.472609375 20 l-2.9199 0 l-0.92773 -10.635 l-3.5742 10.635 l-1.8945 0 l-3.5742 -10.635 l-0.9375 10.635 l-2.9297 0 l1.1816 -14.111 l4.1797 0 l3.0078 8.8574 l3.0469 -8.8574 l4.1797 0 z M144.355496875 20 l0 -14.111 l2.9297 0 l0 14.111 l-2.9297 0 z M162.38296875 5.888999999999999 l2.9199 0 l0 14.111 l-3.3887 0 l-6.25 -10.088 l0 10.088 l-2.9199 0 l0 -14.111 l3.3496 0 l6.2891 10.029 l0 -10.029 z M176.8750125 20.19531 c-4.0723 0 -7.0703 -2.8125 -7.0703 -7.2168 c0 -4.4629 3.0664 -7.2852 7.2168 -7.2852 c2.7246 0 4.9805 1.2012 6.2109 3.3203 l-2.5684 1.3672 c-0.74219 -1.4453 -2.0703 -2.1387 -3.6426 -2.1387 c-2.4414 0 -4.2773 1.6797 -4.2773 4.668 c0 2.8809 1.7188 4.7363 4.3848 4.7363 c1.8066 0 3.4668 -0.89844 3.8672 -2.959 l-3.8574 0 l0 -2.3535 l6.6309 0 l0 7.666 l-2.3047 0 l0 -1.9531 c-0.9082 1.3379 -2.4316 2.1484 -4.5898 2.1484 z M203.81859375 5.888999999999999 l0 2.5781 l-3.3496 0 l0 11.533 l-2.9004 0 l0 -11.533 l-3.3691 0 l0 -2.5781 l9.6191 0 z M216.748390625 5.888999999999999 l2.9297 0 l0 14.111 l-2.9297 0 l0 -5.8008 l-5.9668 0 l0 5.8008 l-2.9297 0 l0 -14.111 l2.9297 0 l0 5.7617 l5.9668 0 l0 -5.7617 z M233.3303125 8.467 l-5.2344 0 l0 3.2031 l4.6387 0 l0 2.5488 l-4.6387 0 l0 3.1934 l5.2344 0 l0 2.5879 l-8.1836 0 l0 -14.111 l8.1836 0 l0 2.5781 z M253.49560937500002 8.467 l-5.3711 0 l0 3.2031 l4.6387 0 l0 2.5488 l-4.6387 0 l0 5.7813 l-2.9492 0 l0 -14.111 l8.3203 0 l0 2.5781 z M263.037128125 20.19531 c-3.0957 0 -5.5176 -1.582 -5.5176 -5.1367 l0 -9.1699 l2.9297 0 l0 8.7695 c0 2.1484 1.1426 2.9492 2.5879 2.9492 c1.4551 0 2.6074 -0.81055 2.6074 -2.9492 l0 -8.7695 l2.9297 0 l0 9.1699 c0 3.5547 -2.4316 5.1367 -5.5371 5.1367 z M281.933828125 5.888999999999999 l0 2.5781 l-3.3496 0 l0 11.533 l-2.9004 0 l0 -11.533 l-3.3691 0 l0 -2.5781 l9.6191 0 z M291.191425 20.19531 c-3.0957 0 -5.5176 -1.582 -5.5176 -5.1367 l0 -9.1699 l2.9297 0 l0 8.7695 c0 2.1484 1.1426 2.9492 2.5879 2.9492 c1.4551 0 2.6074 -0.81055 2.6074 -2.9492 l0 -8.7695 l2.9297 0 l0 9.1699 c0 3.5547 -2.4316 5.1367 -5.5371 5.1367 z M309.355425 20 l-3.6719 -6.2109 l-0.84961 0 l0 6.2109 l-2.9297 0 l0 -14.111 l5.1172 0 c3.1934 0 4.541 1.8848 4.541 4.2188 c0 1.8945 -1.0742 3.125 -2.9883 3.5352 l4.248 6.3574 l-3.4668 0 z M304.834025 8.32 l0 3.3691 l1.7285 0 c1.5625 0 2.1973 -0.66406 2.1973 -1.6797 c0 -1.0059 -0.63477 -1.6895 -2.1973 -1.6895 l-1.7285 0 z M324.9709375 8.467 l-5.2344 0 l0 3.2031 l4.6387 0 l0 2.5488 l-4.6387 0 l0 3.1934 l5.2344 0 l0 2.5879 l-8.1836 0 l0 -14.111 l8.1836 0 l0 2.5781 z"></path></g>
			</g>
		</svg>
	